<svg width="3208" height="3258" viewBox="0 0 3208 3258" fill="none" xmlns="http://www.w3.org/2000/svg">
<g opacity="0.32">
<mask id="mask0_2_73" style="mask-type:luminance" maskUnits="userSpaceOnUse" x="199" y="0" width="3009" height="2710">
<path d="M1028.73 1.52509L3207.28 1188.64L2379.05 2708.58L200.498 1521.46L1028.73 1.52509Z" fill="white" stroke="white"/>
</mask>
<g mask="url(#mask0_2_73)">
<path d="M1325.92 2048.39L1325.94 2048.4L1325.96 2048.41L2307.41 2533.77C2307.41 2533.77 2307.42 2533.77 2307.42 2533.78C2340.62 2551.81 2379.88 2541.49 2396.25 2511.45L3013.32 1379.03C3029.77 1348.84 3017.23 1310.23 2985.5 1292.94L2943.39 1269.99L2942.95 1269.75L2942.71 1270.19L2317.61 2417.35C2307.81 2433.6 2286.25 2443.04 2262.95 2430.71C2262.59 2430.52 2257.93 2427.7 2249.6 2422.66C2240.32 2417.06 2226.51 2408.7 2208.99 2398.15C2175.74 2378.12 2129.21 2350.2 2075.27 2318.2C1967.38 2254.2 1829.85 2173.89 1709.72 2107.85C1605.5 2051.06 1520.88 2018.11 1461.72 1999.03C1432.14 1989.49 1408.92 1983.43 1392.8 1979.58C1384.75 1977.66 1378.46 1976.29 1374.05 1975.33C1371.84 1974.84 1370.11 1974.46 1368.85 1974.16C1368.22 1974.01 1367.72 1973.88 1367.34 1973.77C1366.94 1973.66 1366.72 1973.57 1366.63 1973.52C1366.54 1973.48 1366.36 1973.34 1366.06 1973.07C1365.77 1972.82 1365.39 1972.47 1364.93 1972.02C1364.01 1971.14 1362.76 1969.9 1361.17 1968.31L1360.79 1967.93C1357.64 1964.78 1353.25 1960.4 1347.56 1954.93C1335.72 1943.54 1318.24 1927.43 1294.6 1907.97C1247.3 1869.03 1175.33 1816.65 1074.33 1761.62C950.489 1694.72 806.811 1621.87 693.725 1565.5C637.181 1537.31 588.284 1513.25 553.337 1496.1C542.344 1490.71 532.731 1486 524.695 1482.06C519.958 1479.74 515.768 1477.69 512.168 1475.93C507.312 1473.54 503.527 1471.68 500.908 1470.39C499.599 1469.74 498.583 1469.23 497.871 1468.87C497.515 1468.69 497.237 1468.55 497.037 1468.45C496.979 1468.42 496.928 1468.39 496.884 1468.37C496.852 1468.35 496.824 1468.33 496.8 1468.32L496.759 1468.3L496.731 1468.28C496.713 1468.27 496.707 1468.27 496.708 1468.27C489.672 1463.48 482.473 1456.36 478.332 1447.35C474.202 1438.35 473.104 1427.46 478.283 1415.06L1103.37 267.918L1103.61 267.479L1103.17 267.24L1061.15 244.339C1029.42 227.049 990.176 237.44 973.721 267.637L356.653 1400.06C340.288 1430.09 352.849 1468.65 384.571 1485.94C384.574 1485.94 384.577 1485.95 384.58 1485.95L1325.92 2048.39ZM1322.33 1832.62L1323.83 1833.79L1323.1 1832.03C1296.61 1767.62 1244.74 1686.34 1140.04 1629.29L1140.04 1629.28C1004.41 1556.18 823.154 1507.29 692.064 1478.72L691.736 1479.66C808.998 1537.87 969.047 1618.61 1103.91 1691.41C1202.32 1745.03 1273.09 1794 1322.33 1832.62ZM1161.85 326.547L1161.51 326.502L1161.34 326.804L587.605 1379.7L587.272 1380.32L587.959 1380.44C706.045 1400.97 980.212 1456.98 1174.45 1561.76C1309.62 1635.42 1373.15 1742.98 1402.76 1823.05L1403.15 1824.08L1403.67 1823.11L1991.64 744.088L1991.74 743.913L1991.69 743.72C1981.76 706.51 1936.89 585.165 1760.05 486.361L1760.05 486.359C1668.83 436.651 1542.57 399.776 1427.5 373.791C1312.42 347.803 1208.47 332.699 1161.85 326.547ZM2147.96 2273.17L2148.57 2272.39C2053.61 2177.83 1914.65 2052.12 1780.49 1978.27L1780.49 1978.27C1675.19 1920.9 1578.61 1920.96 1509.96 1933.48L1508.08 1933.83L1509.89 1934.45C1567.9 1954.43 1645.09 1986.3 1739.59 2037.8C1877.87 2113.83 2034.62 2205.73 2147.96 2273.17ZM2061.35 781.73L2061.16 781.791L2061.06 781.967L1473.2 1860.79L1472.67 1861.75L1473.75 1861.51C1556.96 1843.03 1681.17 1837.88 1815.15 1910.88C2010.04 2018.14 2205.99 2218.3 2287.3 2306.43L2287.77 2306.94L2288.11 2306.33L2861.84 1253.43L2862.01 1253.12L2861.79 1252.86C2831.35 1217 2762.48 1137.92 2678.93 1055.66C2595.38 973.41 2497.13 887.95 2407.95 839.353L2407.94 839.35C2225.26 742.301 2098.46 769.886 2061.35 781.73ZM2865.61 1141.31L2865.67 1141.37L2865.75 1141.41L3021.75 1226.42C3091.8 1264.59 3119.12 1350.04 3082.71 1416.85L2465.64 2549.27C2429.3 2615.96 2342.74 2639.24 2272.69 2601.07L2272.68 2601.07L2272.67 2601.06L1291.13 2115.71L1291.12 2115.7L1291.12 2115.7C1290.6 2115.47 1290.14 2115.22 1289.67 2114.96C1289.19 2114.7 1288.74 2114.46 1288.31 2114.17L1288.3 2114.17L1288.29 2114.16L1288.04 2114.59C1288.29 2114.16 1288.29 2114.16 1288.28 2114.15L1288.25 2114.13L1288.12 2114.06L1287.61 2113.75L1285.59 2112.55L1277.72 2107.84L1247.84 2089.99L1141.21 2026.27L817.612 1832.91C582.278 1692.28 346.906 1551.64 346.851 1551.61C278.305 1514.26 250.916 1428.94 287.257 1362.24L904.326 229.822C940.732 163.011 1027.34 139.645 1097.39 177.817L1253.18 262.707L1253.26 262.748L1253.34 262.762C1394.51 285.089 1637.35 333.173 1791.6 417.221C1969.94 516.842 2035.04 637.335 2058.59 701.441L2058.65 701.618L2058.82 701.708L2060.19 702.456L2060.36 702.547L2060.54 702.505C2126.84 687.352 2262.27 676.135 2438.73 769.901C2596.79 856.033 2769.9 1034.55 2865.61 1141.31Z" fill="#3E5694" fill-opacity="0.14" stroke="#3E4B94"/>
</g>
</g>
<g opacity="0.32">
<path d="M212.576 1830.14L213.054 1829.26L361.739 1910.28C394.365 1928.06 418.294 1948 433.615 1970.05C449.067 1992.07 457.1 2014.92 457.714 2038.63C458.458 2062.29 452.916 2085.03 441.023 2106.85C428.104 2130.56 409.775 2148.67 386.015 2161.21C362.627 2173.59 334.932 2176.86 302.93 2171.02L302.933 2170.86L301.933 2170.84L301.749 2171.82C301.804 2171.83 301.858 2171.84 301.913 2171.85L297.811 2378.39L296.822 2377.86M212.576 1830.14L211.698 1829.66L0.859029 2216.58L1.73712 2217.06M212.576 1830.14L1.73712 2217.06M212.576 1830.14L361.261 1911.16C393.798 1928.89 417.589 1948.74 432.794 1970.62L432.797 1970.62C448.151 1992.5 456.106 2015.17 456.714 2038.65L456.714 2038.66C457.453 2062.14 451.957 2084.7 440.145 2106.38C427.32 2129.91 409.134 2147.88 385.548 2160.33L385.547 2160.33C362.16 2172.71 334.373 2175.92 302.118 2169.86L300.957 2169.64L300.934 2170.82L296.822 2377.86M1.73712 2217.06L1.25864 2217.94L73.8546 2257.5L74.333 2256.62M1.73712 2217.06L74.333 2256.62M74.333 2256.62L75.2111 2257.1L157.794 2105.54L158.273 2104.67L159.151 2105.14L220.09 2138.35L212.104 2332.83M74.333 2256.62L157.395 2104.19L157.873 2103.31L158.751 2103.79L220.568 2137.47L221.115 2137.77L221.089 2138.39L213.128 2332.25M212.104 2332.83L296.799 2378.98L296.822 2377.86M212.104 2332.83L213.103 2332.87L213.128 2332.25M212.104 2332.83L212.582 2331.95L213.128 2332.25M296.822 2377.86L213.128 2332.25M371.504 2013.56C365.998 1995.81 350.22 1979.97 324.496 1965.96L254.608 1927.87L253.73 1927.4L253.252 1928.27L185.777 2052.1L185.299 2052.98L186.177 2053.46L256.751 2091.91C281.677 2105.5 303.287 2109.81 321.483 2104.55C339.704 2099.37 353.996 2087.19 364.411 2068.08C374.626 2049.33 376.992 2031.14 371.504 2013.56ZM371.504 2013.56C371.504 2013.56 371.504 2013.56 371.504 2013.56L370.552 2013.86L371.504 2013.56C371.504 2013.56 371.504 2013.56 371.504 2013.56Z" stroke="#3E4B94" stroke-width="2"/>
</g>
<g opacity="0.32">
<path d="M405.4 2358.34L405.4 2358.34C404.287 2330.05 411.336 2301.97 426.567 2274.02C442.025 2245.65 461.967 2223.9 486.518 2208.68L486.52 2208.68C511.079 2193.36 537.786 2185.65 566.664 2185.45L566.666 2185.45C595.573 2185.16 625.112 2193.22 655.341 2209.69C683.461 2225.02 705.098 2244.52 720.29 2268.1L720.291 2268.1C735.492 2291.59 743.576 2316.83 744.539 2343.77L744.539 2343.78C745.566 2370.81 739.3 2396.83 725.637 2421.9C723.438 2425.94 720.997 2430.11 718.356 2434.45L718.351 2434.46L718.347 2434.46C715.98 2438.52 713.438 2442.71 710.686 2447.03L492.054 2327.89L491.115 2327.38L490.667 2328.35C480.297 2350.89 478.917 2372.32 486.586 2392.56C494.172 2412.76 508.193 2428.4 528.561 2439.5C543.795 2447.8 558.429 2451.59 572.488 2450.72L572.493 2450.72C586.321 2449.79 598.569 2445.58 609.338 2438.05L683.312 2478.36C668.673 2492.16 651.432 2502.69 631.639 2509.92C611.353 2517.32 589.888 2520.08 567.144 2518.24C544.447 2516.27 521.508 2509 498.259 2496.33C469.277 2480.54 446.82 2460.69 430.811 2436.77C414.93 2412.81 406.449 2386.67 405.4 2358.34ZM516.022 2284.31L515.251 2285.24L516.315 2285.82L660.211 2364.23L661.147 2364.74L661.597 2363.78C670.404 2344.82 671.29 2326.31 664.235 2308.34C657.193 2290.28 644.034 2276.03 624.881 2265.59C606.384 2255.51 587.36 2251.58 567.833 2253.83C548.178 2256.07 530.906 2266.27 516.022 2284.31Z" stroke="#3E4B94" stroke-width="2"/>
</g>
<g opacity="0.32">
<path d="M807.666 2478.34L807.666 2478.34C837.072 2473.92 872.701 2483 914.512 2505.78L987.834 2545.73L988.712 2546.21L989.191 2545.33L992.85 2538.62C1003.23 2519.56 1005.23 2502.26 998.561 2486.88C992.077 2471.59 980.406 2459.32 963.541 2450.13C948.293 2441.82 933.058 2438.03 917.894 2438.81C902.875 2439.56 890.333 2445.81 880.253 2457.43L809.128 2418.67C821.753 2400.38 837.934 2387.31 857.722 2379.47L857.726 2379.47C877.872 2371.38 899.729 2368.58 923.291 2371.12C946.921 2373.76 970.748 2381.56 994.688 2394.61C1035.63 2416.92 1062.49 2444.26 1075.36 2476.54L1075.36 2476.54C1088.26 2508.71 1085.07 2542.57 1065.62 2578.27L973.809 2746.75L911.906 2713.02L928.935 2665.7L929.89 2663.04L927.476 2664.5C911.004 2674.48 892.514 2680.15 872.051 2681.49C851.7 2682.69 829.593 2676.88 805.668 2663.84C780.893 2650.34 762.69 2635.55 751.028 2619.52C739.342 2603.35 733.091 2586.96 732.183 2570.38C731.275 2553.66 734.953 2537.82 743.145 2522.78C756.914 2497.52 778.381 2482.73 807.666 2478.34ZM963.201 2588.92L963.914 2587.99L962.887 2587.43L899.352 2552.81C879.461 2541.97 863.168 2537.55 850.49 2539.82C838.015 2542.03 828.961 2548.3 823.336 2558.62C817.342 2569.62 816.976 2580.61 822.369 2591.53L822.374 2591.54C827.865 2602.34 837.682 2611.55 851.795 2619.24C873.367 2631 893.894 2633.49 913.298 2626.46C932.641 2619.56 949.297 2607.02 963.201 2588.92Z" stroke="#3E4B94" stroke-width="2"/>
</g>
<g opacity="0.32">
<path d="M1404.93 2674.58L1492.81 2513.3L1565.58 2552.96L1348.67 2951.02L1283.81 2915.68L1297.01 2872.59L1297.66 2870.47L1295.64 2871.38C1279.83 2878.51 1261.77 2882.54 1241.51 2883.44C1221.33 2884.31 1199.05 2878.2 1174.69 2864.92C1147.7 2850.22 1126.98 2830.79 1112.53 2806.78C1098.22 2782.68 1090.75 2756.39 1090.22 2727.91C1089.75 2699.54 1097.02 2671.57 1112.07 2643.94C1127.1 2616.36 1146.62 2595.17 1170.6 2580.39C1194.73 2565.56 1220.75 2557.79 1248.61 2557.03L1248.61 2557.03C1276.58 2556.24 1304.09 2563.21 1331.08 2577.91C1352.7 2589.69 1369.48 2603.85 1381.43 2620.32C1393.45 2636.88 1400.67 2654.82 1403.06 2674.23L1403.44 2677.32L1404.93 2674.58ZM1295.77 2822.39L1295.77 2822.38L1359.93 2703.17L1360.89 2702.89C1360.89 2702.89 1360.89 2702.89 1360.89 2702.89C1353.83 2678.83 1338.17 2660.22 1313.92 2647.01C1290.02 2633.98 1265.94 2630.84 1241.87 2637.6L1241.87 2637.6C1217.85 2644.45 1199.23 2660.05 1186.04 2684.25C1172.83 2708.49 1169.71 2732.79 1176.74 2757.1L1176.74 2757.1C1183.91 2781.36 1199.54 2800.02 1223.45 2813.05C1247.69 2826.26 1271.77 2829.41 1295.77 2822.39Z" stroke="#3E4B94" stroke-width="2"/>
</g>
<g opacity="0.32">
<path d="M1720.39 3037.7L1720.49 3037L1719.88 3036.67L1560.87 2950.02L1560.26 2949.69L1559.73 2950.15L1478.12 3021.55L1402.05 2980.1L1761.26 2674.03L1843.85 2719.03L1781.38 3186.81L1704.12 3144.71L1720.39 3037.7ZM1610.42 2905.76L1609.35 2906.71L1610.6 2907.39L1728.74 2971.77L1730 2972.45L1730.21 2971.03L1758.89 2777L1759.29 2774.29L1757.24 2776.1L1610.42 2905.76Z" stroke="#3E4B94" stroke-width="2"/>
</g>
<g opacity="0.32">
<path d="M1835.98 3216.56L2046.82 2829.64L2119.42 2869.2L1908.58 3256.12L1835.98 3216.56Z" stroke="#3E4B94" stroke-width="2"/>
</g>
</svg>
